<?xml version="1.0"?>
<svg xmlns="http://www.w3.org/2000/svg" xmlns:xlink="http://www.w3.org/1999/xlink" version="1.1" id="Capa_1" x="0px" y="0px" viewBox="0 0 512 512" style="enable-background:new 0 0 512 512;" xml:space="preserve" width="512px" height="512px" class=""><g><g>
	<g>
		<path d="M497.432,220.711L291.303,14.581c-9.396-9.396-21.928-14.569-35.29-14.569c-13.362,0-25.895,5.174-35.289,14.569    l-206.13,206.13c-19.458,19.458-19.458,51.12,0,70.579l206.13,206.129c9.395,9.396,21.928,14.569,35.289,14.569    c13.362,0,25.895-5.174,35.29-14.568l206.128-206.129c9.396-9.396,14.569-21.928,14.569-35.289    C512,242.638,506.826,230.106,497.432,220.711z M483.29,277.149L277.162,483.277c-5.618,5.618-13.128,8.712-21.149,8.712    c-8.02,0-15.53-3.094-21.147-8.712L28.736,277.149c-11.66-11.661-11.66-30.635,0-42.296l206.13-206.13    c5.618-5.618,13.127-8.712,21.147-8.712c8.021,0,15.53,3.094,21.148,8.712L483.29,234.852c5.618,5.618,8.712,13.127,8.712,21.148    C492.001,264.02,488.907,271.531,483.29,277.149z" data-original="#000000" class="active-path" data-old_color="#FCF9F9" fill="#FFFFFF"/>
	</g>
</g><g>
	<g>
		<path d="M474.806,243.337L268.675,37.207c-3.355-3.354-7.852-5.201-12.662-5.201c-4.811,0-9.307,1.847-12.664,5.202    L37.219,243.337c-6.982,6.983-6.982,18.344,0,25.328l206.131,206.13c3.355,3.354,7.852,5.201,12.662,5.201    c4.811,0,9.309-1.848,12.663-5.202l206.13-206.13C481.788,261.681,481.788,250.32,474.806,243.337z M256.013,459.174    L52.84,256.001L256.013,52.828l203.173,203.173L256.013,459.174z" data-original="#000000" class="active-path" data-old_color="#FCF9F9" fill="#FFFFFF"/>
	</g>
</g><g>
	<g>
		<path d="M275.26,189.5h-40.303c-5.523,0-10,4.477-10,10v43.62c0,5.523,4.477,10,10,10h40.303c17.54,0,31.809-14.269,31.809-31.809    C307.069,203.769,292.8,189.5,275.26,189.5z M275.26,233.12h-30.304v-23.621h30.304c6.402,0,11.81,5.409,11.81,11.81    C287.07,227.711,281.661,233.12,275.26,233.12z" data-original="#000000" class="active-path" data-old_color="#FCF9F9" fill="#FFFFFF"/>
	</g>
</g><g>
	<g>
		<path d="M275.261,153.151h-76.652c-5.524,0-10.001,4.477-10.001,10v185.7c0,5.523,4.477,10,10,10h36.35c5.523,0,10-4.477,10-10    v-59.382h30.304c37.583,0,68.159-30.576,68.159-68.159C343.419,183.727,312.844,153.151,275.261,153.151z M275.26,269.469h-40.303    c-5.523,0-10,4.477-10,10v59.382h-16.351V173.15h0.001h66.653c26.556,0,48.16,21.604,48.16,48.16    C323.419,247.864,301.815,269.469,275.26,269.469z" data-original="#000000" class="active-path" data-old_color="#FCF9F9" fill="#FFFFFF"/>
	</g>
</g><g>
	<g>
		<path d="M146.618,193.378c-3.895-3.916-10.227-3.933-14.141-0.038l-0.182,0.181c-3.916,3.895-3.933,10.225-0.038,14.141    c1.954,1.965,4.522,2.948,7.09,2.948c2.55,0,5.101-0.97,7.052-2.91l0.182-0.181C150.496,203.624,150.513,197.293,146.618,193.378z    " data-original="#000000" class="active-path" data-old_color="#FCF9F9" fill="#FFFFFF"/>
	</g>
</g><g>
	<g>
		<path d="M124.697,215.256c-3.906-3.906-10.237-3.905-14.142-0.001L76.879,248.93c-3.905,3.905-3.905,10.236,0,14.141    c1.953,1.953,4.512,2.929,7.071,2.929s5.119-0.977,7.071-2.929l33.675-33.674C128.601,225.492,128.601,219.16,124.697,215.256z" data-original="#000000" class="active-path" data-old_color="#FCF9F9" fill="#FFFFFF"/>
	</g>
</g><g>
	<g>
		<path d="M435.145,248.93c-3.905-3.905-10.237-3.905-14.141-0.001l-33.675,33.674c-3.905,3.905-3.905,10.236-0.001,14.141    c1.954,1.954,4.513,2.93,7.072,2.93c2.559,0,5.119-0.977,7.071-2.929l33.675-33.674C439.05,259.166,439.05,252.835,435.145,248.93    z" data-original="#000000" class="active-path" data-old_color="#FCF9F9" fill="#FFFFFF"/>
	</g>
</g><g>
	<g>
		<path d="M379.736,304.306c-3.916-3.895-10.247-3.879-14.141,0.038l-0.181,0.182c-3.895,3.915-3.878,10.246,0.038,14.141    c1.951,1.94,4.501,2.91,7.052,2.91c2.568,0,5.136-0.983,7.09-2.948l0.181-0.182C383.668,314.533,383.651,308.201,379.736,304.306z    " data-original="#000000" class="active-path" data-old_color="#FCF9F9" fill="#FFFFFF"/>
	</g>
</g></g> </svg>
